<svg width="50" height="51" viewBox="0 0 50 51" fill="none" xmlns="http://www.w3.org/2000/svg">
<path d="M18.0664 30.3539C18.0664 33.0414 20.1289 35.208 22.6914 35.208H27.9206C30.1497 35.208 31.9622 33.3122 31.9622 30.9789C31.9622 28.4372 30.8581 27.5414 29.2122 26.958L20.8164 24.0414C19.1706 23.458 18.0664 22.5622 18.0664 20.0205C18.0664 17.6872 19.8789 15.7914 22.1081 15.7914H27.3372C29.8997 15.7914 31.9622 17.958 31.9622 20.6455" stroke="#AD9E20" stroke-width="2.5" stroke-linecap="round" stroke-linejoin="round"/>
<path d="M25 13V38" stroke="#AD9E20" stroke-width="2.5" stroke-linecap="round" stroke-linejoin="round"/>
<path d="M24.9998 46.3333C36.5058 46.3333 45.8332 37.0059 45.8332 25.5C45.8332 13.9941 36.5058 4.66666 24.9998 4.66666C13.4939 4.66666 4.1665 13.9941 4.1665 25.5C4.1665 37.0059 13.4939 46.3333 24.9998 46.3333Z" stroke="#AD9E20" stroke-width="2.5" stroke-linecap="round" stroke-linejoin="round"/>
</svg>
