<svg width="50" height="51" viewBox="0 0 50 51" fill="none" xmlns="http://www.w3.org/2000/svg">
<path d="M38.5418 26.8542V34.5625C38.5418 41.0625 32.4793 46.3333 25.0002 46.3333C17.521 46.3333 11.4585 41.0625 11.4585 34.5625V26.8542C11.4585 33.3542 17.521 38 25.0002 38C32.4793 38 38.5418 33.3542 38.5418 26.8542Z" stroke="#2DCE6D" stroke-width="2.5" stroke-linecap="round" stroke-linejoin="round"/>
<path d="M38.5418 16.4375C38.5418 18.3333 38.021 20.0833 37.1043 21.5833C34.8752 25.25 30.2918 27.5833 25.0002 27.5833C19.7085 27.5833 15.1252 25.25 12.896 21.5833C11.9793 20.0833 11.4585 18.3333 11.4585 16.4375C11.4585 13.1875 12.9793 10.25 15.4168 8.12499C17.8752 5.97916 21.2502 4.66666 25.0002 4.66666C28.7502 4.66666 32.1252 5.97916 34.5835 8.10416C37.021 10.25 38.5418 13.1875 38.5418 16.4375Z" stroke="#2DCE6D" stroke-width="2.5" stroke-linecap="round" stroke-linejoin="round"/>
<path d="M38.5418 16.4375V26.8542C38.5418 33.3542 32.4793 38 25.0002 38C17.521 38 11.4585 33.3542 11.4585 26.8542V16.4375C11.4585 9.93749 17.521 4.66666 25.0002 4.66666C28.7502 4.66666 32.1252 5.97916 34.5835 8.10416C37.021 10.25 38.5418 13.1875 38.5418 16.4375Z" stroke="#2DCE6D" stroke-width="2.5" stroke-linecap="round" stroke-linejoin="round"/>
</svg>
